PathFileType	4	(X/Y/Z)	D:\TRACE\v60_Jaco2_6-2-23\ArmBody_Mo2_DMP_1-platform.trc
DataRate	CameraRate	NumFrames	NumMarkers	Units	OrigDataRate	OrigDataStartFrame	OrigNumFrames
100.00	100.00	      28	5	mm	100.00	5733	      6551
Frame#	Time	Left_Front			Right_Front			Left_Aft			Right_Aft			Post			
		X1	Y1	Z1	X2	Y2	Z2	X3	Y3	Z3	X4	Y4	Z4	X5	Y5	Z5	

5733	57.320				738.68463	-64.00980	-646.87750	-760.92480	56.26292	460.85693	656.85870	67.60647	562.19263	-36.18280	1190.17371	-1124.55835	
5734	57.330				738.78882	-64.04429	-646.95013	-760.81348	56.31766	460.88428	656.92578	67.64194	562.19611	-35.82218	1190.04956	-1124.73669	
5735	57.340				738.93292	-64.11778	-646.92419	-760.66046	56.40931	460.80457	657.05042	67.69537	562.20636	-35.75657	1189.99573	-1124.84253	
5736	57.350				739.02655	-64.12545	-646.94287	-760.57446	56.46120	460.84085	657.17908	67.70796	562.18927	-35.69696	1189.98657	-1124.90503	
5737	57.360				739.25330	-64.14893	-646.86426	-760.39404	56.41128	460.79675	657.31891	67.73693	562.19067	-35.52831	1190.01404	-1125.01868	
5738	57.370				739.38245	-64.18624	-646.88220	-760.14099	56.37031	460.76788	657.42010	67.71819	562.17963	-35.74067	1189.96375	-1124.99390	
5739	57.380				739.51721	-64.23608	-646.86902	-759.97223	56.37819	460.70248	657.56183	67.75266	562.19244	-35.70784	1189.96802	-1125.02441	
5740	57.390				739.63818	-64.20333	-646.88782	-759.84149	56.30133	460.71246	657.78949	67.78481	562.17859	-35.70091	1189.97437	-1125.05469	
5741	57.400				739.75342	-64.19476	-646.84808	-759.76440	56.22834	460.68704	657.96838	67.75865	562.20337	-35.67141	1189.96558	-1125.03210	
5742	57.410				739.83716	-64.21519	-646.80847	-759.73352	56.24013	460.66437	658.17542	67.74231	562.18073	-35.65407	1189.98877	-1125.07104	
5743	57.420				739.94690	-64.21933	-646.79358	-759.61475	56.23158	460.65680	658.40289	67.75396	562.17932	-35.53497	1190.00293	-1125.08972	
5744	57.430				740.06976	-64.24406	-646.79968	-759.45850	56.20646	460.65433	658.49390	67.74767	562.15070	-35.34471	1189.93298	-1125.11206	
5745	57.440				740.15485	-64.24495	-646.84930	-759.27588	56.28485	460.68384	658.63342	67.77858	562.12988	-35.27250	1189.90149	-1125.11975	
5746	57.450				740.41626	-64.21944	-646.85089	-758.97186	56.25915	460.68973	658.74139	67.76711	562.14001	-35.21078	1189.89124	-1125.04724	
5747	57.460				740.47369	-64.27380	-646.87177	-758.81812	56.21629	460.69855	658.81219	67.77159	562.12531	-34.98048	1189.85388	-1125.01538	
5748	57.470				740.63824	-64.21614	-646.84290	-758.66357	56.16218	460.72104	658.88293	67.77367	562.12537	-34.93216	1189.89270	-1124.97424	
5749	57.480				740.76135	-64.17069	-646.86176	-758.50433	56.19398	460.71310	658.96167	67.77477	562.12433	-34.88733	1189.89270	-1124.90686	
5750	57.490				740.93268	-64.09866	-646.83984	-758.46216	56.18511	460.75394	659.02002	67.75038	562.11499	-34.81251	1190.00427	-1124.84314	
5751	57.500				741.11987	-64.03290	-646.84351	-758.43811	56.18209	460.77036	659.10559	67.72800	562.10272	-34.52051	1190.02319	-1124.70337	
5752	57.510				741.26099	-63.97009	-646.83234	-758.33447	56.17446	460.81754	659.18134	67.67006	562.11932	-34.27808	1190.14941	-1124.59546	
5753	57.520				741.43005	-63.84813	-646.78143	-758.24298	56.16916	460.85400	659.39252	67.60486	562.13000	-34.00025	1190.28577	-1124.61584	
5754	57.530				741.57550	-63.72545	-646.71594	-758.06860	56.06717	460.90210	659.55731	67.55188	562.17712	-33.91272	1190.41589	-1124.52490	
5755	57.540				741.75940	-63.65012	-646.71136	-757.91351	56.02129	460.92429	659.71509	67.49731	562.19354	-33.57980	1190.49548	-1124.51733	
5756	57.550				741.90332	-63.54235	-646.68890	-757.71033	55.96411	460.91931	659.84619	67.47743	562.19092	-33.29678	1190.62341	-1124.42444	
5757	57.560				741.93738	-63.47453	-646.68616	-757.61029	55.93826	460.93146	660.10498	67.42597	562.23462	-33.10516	1190.73999	-1124.28870	
5758	57.570				742.05536	-63.42854	-646.72949	-757.45386	55.83842	460.96335	660.31390	67.31297	562.23749	-32.94229	1190.85376	-1124.17126	
5759	57.580				742.18768	-63.40816	-646.68683	-757.34509	55.86087	461.03952	660.38519	67.18987	562.29181	-32.74243	1190.98230	-1123.98877	
5760	57.590				742.27899	-63.35510	-646.76611	-757.13312	55.79305	461.10663	660.76611	67.14146	562.29688	-32.54533	1191.14307	-1123.89783	
